<svg width="54" height="54" viewBox="0 0 54 54" fill="none" xmlns="http://www.w3.org/2000/svg">
<g clip-path="url(#clip0_332_142)">
<path d="M39.6352 29.0248C37.9055 28.2865 35.9016 28.7717 34.7098 30.2271L31.2082 34.5092C26.3566 31.6931 22.3066 27.6432 19.4906 22.7916L23.7621 19.3006C25.2176 18.1088 25.7133 16.1049 24.9645 14.3752L19.902 2.56268C19.1109 0.706431 17.1176 -0.327163 15.1453 0.0947121L3.33281 2.62596C1.39219 3.03729 0 4.75643 0 6.74979C0 31.1342 18.4781 51.2154 42.1981 53.7361C43.2316 53.8416 44.2652 53.926 45.3199 53.9682H45.3305C45.9738 53.9892 46.6066 54.0103 47.25 54.0103C49.2434 54.0103 50.9625 52.6181 51.3738 50.6775L53.9051 38.865C54.327 36.8928 53.2934 34.8994 51.4371 34.1084L39.6246 29.0459L39.6352 29.0248ZM46.5645 48.9373C23.8148 48.5681 5.43164 30.1849 5.07305 7.43534L15.5355 5.18885L20.0707 15.7779L16.2844 18.8787C14.3648 20.4502 13.8691 23.1818 15.1137 25.3334C18.3727 30.9549 23.0555 35.6377 28.677 38.8967C30.8285 40.1412 33.5602 39.6455 35.1316 37.726L38.2324 33.9396L48.8215 38.4748L46.5645 48.9373Z" fill="#3DC98E"/>
</g>
<defs>
<clipPath id="clip0_332_142">
<rect width="54" height="54" fill="white"/>
</clipPath>
</defs>
</svg>
