<svg width="18" height="14" viewBox="0 0 18 14" fill="none" xmlns="http://www.w3.org/2000/svg">
<path d="M1.35 1.26395C1.35 0.889299 1.04906 0.587891 0.675 0.587891C0.300937 0.587891 0 0.889299 0 1.26395V4.86958V9.82733V12.5316C0 12.9062 0.300937 13.2076 0.675 13.2076C1.04906 13.2076 1.35 12.9062 1.35 12.5316V10.5034H16.65V12.7569C16.65 13.1316 16.9509 13.433 17.325 13.433C17.6991 13.433 18 13.1316 18 12.7569V9.82733V7.57381C18 5.7062 16.4897 4.19352 14.625 4.19352H1.35V1.26395ZM16.65 9.15127H1.35V5.54564H14.625C15.7444 5.54564 16.65 6.45268 16.65 7.57381V9.15127Z" fill="#3DC98E"/>
</svg>
