<svg width="18" height="18" viewBox="0 0 18 18" fill="none" xmlns="http://www.w3.org/2000/svg">
<path d="M8 5.5C8 4.70435 7.68393 3.94129 7.12132 3.37868C6.55871 2.81607 5.79565 2.5 5 2.5C4.20435 2.5 3.44129 2.81607 2.87868 3.37868C2.31607 3.94129 2 4.70435 2 5.5C2 6.29565 2.31607 7.05871 2.87868 7.62132C3.44129 8.18393 4.20435 8.5 5 8.5C5.79565 8.5 6.55871 8.18393 7.12132 7.62132C7.68393 7.05871 8 6.29565 8 5.5ZM9.4375 6.25C9.08125 8.37813 7.22813 10 5 10C2.51562 10 0.5 7.98438 0.5 5.5C0.5 3.01562 2.51562 1 5 1C7.23125 1 9.08125 2.62188 9.4375 4.75H11.5219C11.6406 4.04063 12.2594 3.5 13 3.5H16C16.8281 3.5 17.5 4.17188 17.5 5V6C17.5 6.82812 16.8281 7.5 16 7.5H13C12.2563 7.5 11.6406 6.95937 11.5219 6.25H9.4375ZM3 5.5C3 4.96957 3.21071 4.46086 3.58579 4.08579C3.96086 3.71071 4.46957 3.5 5 3.5C5.53043 3.5 6.03914 3.71071 6.41421 4.08579C6.78929 4.46086 7 4.96957 7 5.5C7 6.03043 6.78929 6.53914 6.41421 6.91421C6.03914 7.28929 5.53043 7.5 5 7.5C4.46957 7.5 3.96086 7.28929 3.58579 6.91421C3.21071 6.53914 3 6.03043 3 5.5ZM12.25 9.25C12.25 8.83437 12.5844 8.5 13 8.5C13.4156 8.5 13.75 8.83437 13.75 9.25V9.5H15H16.75C17.1656 9.5 17.5 9.83438 17.5 10.25C17.5 10.6656 17.1656 11 16.75 11H16.5V15.5C16.5 16.3281 15.8281 17 15 17H11C10.1719 17 9.5 16.3281 9.5 15.5V11H9.25C8.83438 11 8.5 10.6656 8.5 10.25C8.5 9.83438 8.83438 9.5 9.25 9.5H11H12.25V9.25ZM11 11V15.5H15V11H11ZM1.5 11.5C1.5 11.225 1.725 11 2 11H4.5H5H6C6.82812 11 7.5 11.6719 7.5 12.5C7.5 13.3281 6.82812 14 6 14H5.5C5.5 14.5531 5.05312 15 4.5 15H2.5C1.94687 15 1.5 14.5531 1.5 14V11.5ZM5.5 13H6C6.275 13 6.5 12.775 6.5 12.5C6.5 12.225 6.275 12 6 12H5.5V13ZM0.5 16.25C0.5 15.8344 0.834375 15.5 1.25 15.5H6.75C7.16563 15.5 7.5 15.8344 7.5 16.25C7.5 16.6656 7.16563 17 6.75 17H1.25C0.834375 17 0.5 16.6656 0.5 16.25ZM13 5V6H16V5H13Z" fill="#3DC98E"/>
</svg>
